<svg enable-background="new 0 0 118 40" viewBox="0 0 118 40" xmlns="http://www.w3.org/2000/svg"><path d="m31.904 13.375c0 7.387-5.988 13.372-13.374 13.372-7.387 0-13.375-5.985-13.375-13.372s5.988-13.375 13.375-13.375c7.386 0 13.374 5.988 13.374 13.375zm-27.012 21.759h-3.033v-1.622h3.217v-1.448h-5.076v7.809h5.247v-1.448h-3.388v-1.855h3.033zm3.365 2.129c.905 0 1.602-.661 1.602-1.506 0-.857-.709-1.518-1.59-1.518s-1.602.661-1.59 1.518c0 .857.71 1.506 1.578 1.506zm9.149 1.011c-.379.151-.991.255-1.566.255-1.651 0-2.629-.985-2.629-2.549 0-1.738 1.15-2.584 2.617-2.584.673 0 1.199.139 1.566.29l.391-1.39c-.33-.174-1.064-.348-2.03-.348-2.495 0-4.501 1.471-4.501 4.136 0 2.224 1.468 3.916 4.318 3.916.991 0 1.773-.185 2.104-.336zm5.26-6.349c-2.422 0-4.012 1.75-4.012 4.09 0 2.236 1.443 3.985 3.877 3.985 2.422 0 4.048-1.541 4.048-4.113.001-2.166-1.381-3.962-3.913-3.962zm-.036 1.402c1.284 0 1.981 1.205 1.981 2.618 0 1.518-.722 2.653-1.981 2.653-1.248 0-2.006-1.077-2.006-2.618 0-1.518.734-2.653 2.006-2.653zm12.77 6.546h1.81l-.44-7.809h-2.446l-.868 2.595c-.281.869-.563 1.9-.783 2.804h-.049c-.184-.915-.428-1.888-.697-2.792l-.807-2.607h-2.483l-.526 7.809h1.725l.159-2.966c.049-.973.098-2.178.135-3.232h.024c.208 1.02.477 2.132.746 3.058l.881 3.013h1.455l1.003-3.047c.318-.916.661-2.028.93-3.024h.024c0 1.135.037 2.271.073 3.209zm4.588 0h1.064v-3.128c.245.058.538.07.856.07 1.04 0 1.945-.29 2.52-.857.416-.406.636-.962.636-1.669 0-.695-.281-1.263-.722-1.633-.489-.417-1.26-.649-2.312-.649-.856 0-1.529.07-2.042.151zm1.064-6.986c.184-.047.538-.081 1.003-.081 1.162 0 1.945.498 1.945 1.541 0 1.054-.783 1.657-2.067 1.657-.355 0-.648-.023-.881-.081zm6.973 6.986h1.064v-3.383h1.003c.966.035 1.419.441 1.663 1.518.22.973.404 1.634.538 1.865h1.101c-.171-.301-.367-1.054-.636-2.143-.196-.811-.575-1.367-1.199-1.576v-.035c.856-.278 1.541-.962 1.541-1.981 0-.614-.245-1.147-.648-1.494-.501-.429-1.248-.638-2.385-.638-.722 0-1.504.07-2.042.162zm1.064-6.998c.184-.046.538-.081 1.052-.081 1.125 0 1.896.441 1.896 1.448 0 .892-.722 1.483-1.859 1.483h-1.089zm10.409-.95c-2.201 0-3.816 1.622-3.816 4.102 0 2.363 1.517 3.974 3.706 3.974 2.104 0 3.828-1.437 3.828-4.113.001-2.329-1.455-3.963-3.718-3.963zm-.036.822c1.773 0 2.63 1.622 2.63 3.186 0 1.772-.954 3.244-2.642 3.244s-2.642-1.494-2.642-3.174c0-1.703.88-3.256 2.654-3.256zm12.207 6.071c-.428.197-1.089.324-1.749.324-1.994 0-3.155-1.216-3.155-3.14 0-2.051 1.284-3.221 3.217-3.221.685 0 1.26.139 1.651.325l.269-.823c-.281-.139-.942-.348-1.957-.348-2.556 0-4.305 1.645-4.305 4.101 0 2.574 1.736 3.964 4.06 3.964 1.003 0 1.798-.185 2.177-.371zm7.34-3.441h-3.192v-2.467h3.388v-.846h-4.464v7.809h4.648v-.846h-3.571v-2.815h3.192v-.835zm2.875 4.113c.44.278 1.309.51 2.104.51 1.945 0 2.874-1.054 2.874-2.259 0-1.147-.697-1.784-2.091-2.294-1.138-.417-1.639-.777-1.639-1.506 0-.533.428-1.17 1.553-1.17.746 0 1.296.22 1.553.371l.294-.822c-.355-.197-.978-.383-1.81-.383-1.602 0-2.666.904-2.666 2.12 0 1.089.832 1.761 2.177 2.224 1.113.394 1.553.823 1.553 1.541 0 .788-.636 1.333-1.724 1.333-.734 0-1.419-.22-1.896-.51zm7.56 0c.44.278 1.309.51 2.104.51 1.945 0 2.874-1.054 2.874-2.259 0-1.147-.697-1.784-2.091-2.294-1.138-.417-1.639-.777-1.639-1.506 0-.533.428-1.17 1.553-1.17.746 0 1.296.22 1.553.371l.294-.822c-.355-.197-.978-.383-1.81-.383-1.602 0-2.666.904-2.666 2.12 0 1.089.832 1.761 2.177 2.224 1.113.394 1.553.823 1.553 1.541 0 .788-.636 1.333-1.725 1.333-.734 0-1.419-.22-1.896-.51zm7.964-7.426v7.809h1.076v-7.809zm5.467 7.809v-3.337c0-1.297-.012-2.235-.073-3.22l.036-.012c.404.846.954 1.738 1.529 2.607l2.617 3.962h1.076v-7.809h-1.003v3.267c0 1.217.024 2.167.122 3.209l-.037.012c-.379-.799-.868-1.622-1.468-2.537l-2.63-3.951h-1.174v7.809zm14.862-4.102h-2.715v.811h1.663v2.329c-.244.116-.721.208-1.419.208-1.932 0-3.18-1.17-3.18-3.151 0-1.958 1.309-3.139 3.314-3.139.831 0 1.382.139 1.822.336l.269-.823c-.355-.162-1.113-.359-2.067-.359-2.764 0-4.464 1.703-4.464 4.032 0 1.216.441 2.259 1.15 2.908.807.73 1.835 1.031 3.082 1.031 1.113 0 2.067-.255 2.544-.429v-3.754zm-59.194-17.334c-.75 1.349-1.499 2.33-2.333 3.003-.958.766-2.416.981-4.582.981-1.583 0-2.999-.061-3.749-.307-.833-.306-1-1.042-1-2.512v-5.334h2.791c3.54 0 4.082.123 4.623 2.329h1.5v-6.16h-1.5c-.541 2.145-1.125 2.298-4.623 2.298h-2.791v-6.497c0-1.012.167-1.073 1.708-1.073h2c2.332 0 3.457.215 4.165.767.75.551 1.292 1.563 1.666 2.636l1.541-.153c-.166-1.9-.375-4.046-.416-4.598h-19.62v1.073c2.958.184 3.374.337 3.374 3.003v11.77c0 2.605-.416 2.789-3.957 3.003v1.073h21.244c.333-.919 1.166-3.708 1.456-5.087zm27.95-.4c-2.124 3.095-4.707 4.72-8.164 4.72-5.666 0-9.793-3.708-9.793-9.348 0-4.536 3.336-8.705 9.377-8.705 3.207 0 6.414 1.073 7.789 4.689l1.542-.214c-.293-1.9-.584-3.31-.959-4.996-1.125-.183-4.207-.827-7.581-.827-9.96 0-16.499 4.352-16.499 10.667 0 4.873 4.582 10.175 15.666 10.175 2.832 0 6.664-.613 7.746-.796.71-1.073 1.792-3.402 2.334-4.904zm3.874-14.221v1.073c2.915.214 3.29.429 3.29 3.034v11.739c0 2.605-.375 2.82-3.499 3.034v1.042h12.913v-1.042c-3.54-.214-3.915-.428-3.915-3.034v-4.229s2.479.622 4.541.459c4.419-.35 8.539-2.268 8.539-6.376 0-1.992-1.125-3.524-3.082-4.505-1.667-.858-3.999-1.195-7.29-1.195zm8.789 2.452c0-.46.083-.766.375-.95.249-.153.75-.307 1.541-.307 2.542 0 5.165 1.134 5.165 4.598 0 4.138-3.333 4.935-4.832 4.935-.874 0-1.749-.153-2.249-.307z" fill="#fff"/></svg>